<svg width="594" height="743" viewBox="0 0 594 743" fill="none" xmlns="http://www.w3.org/2000/svg">
<g opacity="0.05" clip-path="url(#clip0_44_482)">
<path d="M0 539.248V742.753H9.8135V518.427C9.8135 510.901 16.224 504.779 24.1041 504.779C31.9842 504.779 38.3947 510.901 38.3947 518.427V742.753H48.2082V518.427C48.2082 505.734 37.3938 495.406 24.1041 495.406C10.8144 495.406 0 505.734 0 518.427V520.717" fill="#F5F3E7"/>
<path d="M77.9727 539.248V742.753H87.7862V518.427C87.7862 510.901 94.1967 504.779 102.077 504.779C109.957 504.779 116.367 510.901 116.367 518.427V742.753H126.181V518.427C126.181 505.734 115.366 495.406 102.077 495.406C88.787 495.406 77.9727 505.734 77.9727 518.427V520.717" fill="#F5F3E7"/>
<path d="M155.941 539.248V742.753H165.755V518.427C165.755 510.901 172.165 504.779 180.046 504.779C187.926 504.779 194.336 510.901 194.336 518.427V742.753H204.15V518.427C204.15 505.734 193.335 495.406 180.046 495.406C166.756 495.406 155.941 505.734 155.941 518.427V520.717" fill="#F5F3E7"/>
<path d="M233.914 539.248V742.753H243.728V518.427C243.728 510.901 250.138 504.779 258.018 504.779C265.898 504.779 272.309 510.901 272.309 518.427V742.753H282.122V518.427C282.122 505.734 271.308 495.406 258.018 495.406C244.728 495.406 233.914 505.734 233.914 518.427V520.717" fill="#F5F3E7"/>
<path d="M311.883 539.248V742.753H321.696V518.427C321.696 510.901 328.107 504.779 335.987 504.779C343.867 504.779 350.278 510.901 350.278 518.427V742.753H360.091V518.427C360.091 505.734 349.277 495.406 335.987 495.406C322.697 495.406 311.883 505.734 311.883 518.427V520.717" fill="#F5F3E7"/>
<path d="M406.839 534.631L370.656 735.18L380.328 736.77L420.212 515.704C421.55 508.29 428.956 503.295 436.719 504.573C444.487 505.851 449.711 512.925 448.373 520.339L408.489 741.405L418.161 742.995L441.182 615.4L445.4 592.019L458.045 521.929C460.301 509.418 451.483 497.49 438.384 495.336C425.285 493.181 412.796 501.603 410.54 514.114L410.135 516.371" fill="#F5F3E7"/>
<path d="M467.824 539.248V742.753H477.638V518.427C477.638 510.901 484.048 504.779 491.928 504.779C499.808 504.779 506.219 510.901 506.219 518.427V742.753H516.032V518.427C516.032 505.734 505.218 495.406 491.928 495.406C478.639 495.406 467.824 505.734 467.824 518.427V520.717" fill="#F5F3E7"/>
<path d="M545.797 539.248V742.753H555.61V518.427C555.61 510.901 562.021 504.779 569.901 504.779C577.781 504.779 584.192 510.901 584.192 518.427V742.753H594.005V518.427C594.005 505.734 583.191 495.406 569.901 495.406C556.611 495.406 545.797 505.734 545.797 518.427V520.717" fill="#F5F3E7"/>
</g>
<g opacity="0.05" clip-path="url(#clip1_44_482)">
<path d="M594 292.069V494.754H584.186V271.333C584.186 263.837 577.776 257.739 569.896 257.739C562.016 257.739 555.605 263.837 555.605 271.333V494.754H545.792V271.333C545.792 258.691 556.606 248.404 569.896 248.404C583.186 248.404 594 258.691 594 271.333V273.613" fill="#F5F3E7"/>
<path d="M516.027 292.069V494.754H506.214V271.333C506.214 263.837 499.803 257.739 491.923 257.739C484.043 257.739 477.633 263.837 477.633 271.333V494.754H467.819V271.333C467.819 258.691 478.634 248.404 491.923 248.404C505.213 248.404 516.027 258.691 516.027 271.333V273.613" fill="#F5F3E7"/>
<path d="M438.059 292.069V494.754H428.245V271.333C428.245 263.837 421.835 257.739 413.954 257.739C406.074 257.739 399.664 263.837 399.664 271.333V494.754H389.85V271.333C389.85 258.691 400.665 248.404 413.954 248.404C427.244 248.404 438.059 258.691 438.059 271.333V273.613" fill="#F5F3E7"/>
<path d="M360.086 292.069V494.754H350.272V271.333C350.272 263.837 343.862 257.739 335.982 257.739C328.102 257.739 321.691 263.837 321.691 271.333V494.754H311.878V271.333C311.878 258.691 322.692 248.404 335.982 248.404C349.272 248.404 360.086 258.691 360.086 271.333V273.613" fill="#F5F3E7"/>
<path d="M282.117 292.069V494.754H272.304V271.333C272.304 263.837 265.893 257.739 258.013 257.739C250.133 257.739 243.722 263.837 243.722 271.333V494.754H233.909V271.333C233.909 258.691 244.723 248.404 258.013 248.404C271.303 248.404 282.117 258.691 282.117 271.333V273.613" fill="#F5F3E7"/>
<path d="M187.161 287.471L223.344 487.211L213.672 488.795L173.788 268.62C172.45 261.236 165.044 256.262 157.281 257.535C149.513 258.807 144.289 265.852 145.627 273.237L185.511 493.411L175.839 494.995L152.818 367.914L148.6 344.628L135.955 274.82C133.699 262.36 142.517 250.48 155.616 248.334C168.715 246.189 181.204 254.576 183.46 267.037L183.865 269.284" fill="#F5F3E7"/>
<path d="M126.176 292.069V494.754H116.362V271.333C116.362 263.837 109.952 257.739 102.072 257.739C94.1916 257.739 87.7811 263.837 87.7811 271.333V494.754H77.9676V271.333C77.9676 258.691 88.782 248.404 102.072 248.404C115.361 248.404 126.176 258.691 126.176 271.333V273.613" fill="#F5F3E7"/>
<path d="M48.2031 292.069V494.754H38.3896V271.333C38.3896 263.837 31.9791 257.739 24.099 257.739C16.2189 257.739 9.8084 263.837 9.8084 271.333V494.754H-0.00508499V271.333C-0.00508499 258.691 10.8093 248.404 24.099 248.404C37.3887 248.404 48.2031 258.691 48.2031 271.333V273.613" fill="#F5F3E7"/>
</g>
<g opacity="0.05" clip-path="url(#clip2_44_482)">
<path d="M0 44.2477V247.753H9.8135V23.4272C9.8135 15.901 16.224 9.77838 24.1041 9.77838C31.9842 9.77838 38.3947 15.901 38.3947 23.4272V247.753H48.2082V23.4272C48.2082 10.7343 37.3938 0.40564 24.1041 0.40564C10.8144 0.40564 0 10.7343 0 23.4272V25.7167" fill="#F5F3E7"/>
<path d="M77.9727 44.2477V247.753H87.7862V23.4272C87.7862 15.901 94.1967 9.77838 102.077 9.77838C109.957 9.77838 116.367 15.901 116.367 23.4272V247.753H126.181V23.4272C126.181 10.7343 115.366 0.40564 102.077 0.40564C88.787 0.40564 77.9727 10.7343 77.9727 23.4272V25.7167" fill="#F5F3E7"/>
<path d="M155.941 44.2477V247.753H165.755V23.4272C165.755 15.901 172.165 9.77838 180.046 9.77838C187.926 9.77838 194.336 15.901 194.336 23.4272V247.753H204.15V23.4272C204.15 10.7343 193.335 0.40564 180.046 0.40564C166.756 0.40564 155.941 10.7343 155.941 23.4272V25.7167" fill="#F5F3E7"/>
<path d="M233.914 44.2477V247.753H243.728V23.4272C243.728 15.901 250.138 9.77838 258.018 9.77838C265.898 9.77838 272.309 15.901 272.309 23.4272V247.753H282.122V23.4272C282.122 10.7343 271.308 0.40564 258.018 0.40564C244.728 0.40564 233.914 10.7343 233.914 23.4272V25.7167" fill="#F5F3E7"/>
<path d="M311.883 44.2477V247.753H321.696V23.4272C321.696 15.901 328.107 9.77838 335.987 9.77838C343.867 9.77838 350.278 15.901 350.278 23.4272V247.753H360.091V23.4272C360.091 10.7343 349.277 0.40564 335.987 0.40564C322.697 0.40564 311.883 10.7343 311.883 23.4272V25.7167" fill="#F5F3E7"/>
<path d="M406.839 39.6313L370.656 240.18L380.328 241.77L420.212 20.704C421.55 13.2897 428.956 8.29556 436.719 9.57323C444.487 10.8509 449.711 17.9248 448.373 25.339L408.489 246.405L418.161 247.995L441.182 120.4L445.4 97.0195L458.045 26.9291C460.301 14.4181 451.483 2.49005 438.384 0.33572C425.285 -1.81861 412.796 6.60287 410.54 19.1138L410.135 21.3708" fill="#F5F3E7"/>
<path d="M467.824 44.2477V247.753H477.638V23.4272C477.638 15.901 484.048 9.77838 491.928 9.77838C499.808 9.77838 506.219 15.901 506.219 23.4272V247.753H516.032V23.4272C516.032 10.7343 505.218 0.40564 491.928 0.40564C478.639 0.40564 467.824 10.7343 467.824 23.4272V25.7167" fill="#F5F3E7"/>
<path d="M545.797 44.2477V247.753H555.61V23.4272C555.61 15.901 562.021 9.77838 569.901 9.77838C577.781 9.77838 584.192 15.901 584.192 23.4272V247.753H594.005V23.4272C594.005 10.7343 583.191 0.40564 569.901 0.40564C556.611 0.40564 545.797 10.7343 545.797 23.4272V25.7167" fill="#F5F3E7"/>
</g>
<defs>
<clipPath id="clip0_44_482">
<rect width="594" height="248" fill="white" transform="translate(0 495)"/>
</clipPath>
<clipPath id="clip1_44_482">
<rect width="594" height="247" fill="white" transform="matrix(-1 0 0 1 594 248)"/>
</clipPath>
<clipPath id="clip2_44_482">
<rect width="594" height="248" fill="white"/>
</clipPath>
</defs>
</svg>
