<svg width="570" height="626" viewBox="0 0 570 626" fill="none" xmlns="http://www.w3.org/2000/svg">
<g clip-path="url(#clip0_0_18)">
<path d="M388.437 99.3954C394.767 108.36 402.331 114.152 411.116 116.797C419.435 118.912 428.044 119.139 436.955 117.489C445.853 115.827 456.551 112.453 469.049 107.353C477.355 103.727 482.667 101.36 484.97 100.252C495.013 95.6055 502.439 92.5332 507.259 91.0474C513.389 88.8566 519.09 88.2522 524.389 89.2595C529.687 90.2668 534.092 93.2509 537.604 98.237C551.272 117.59 544.174 137.106 516.296 156.812C504 165.512 491.615 169.176 479.13 167.804C466.658 166.444 456.274 159.896 447.98 148.161L428.585 165.072C434.513 173.47 441.511 179.866 449.591 184.286C457.671 188.705 466.104 190.997 474.914 191.173C483.724 191.349 492.723 189.889 501.898 186.817C511.073 183.744 520.034 179.111 528.781 172.928C535.389 168.257 541.266 163.359 546.389 158.234C551.511 153.122 555.916 147.494 559.591 141.387C563.266 135.268 565.758 129.111 567.08 122.903C568.401 116.696 568.25 110.073 566.652 103.047C565.054 96.021 561.806 89.058 556.936 82.158C549.699 71.9213 541.606 65.7516 532.67 63.6488C524.427 61.4831 515.868 61.6342 507.02 64.1147C498.16 66.5952 485.964 71.6191 470.421 79.1991C464.417 82.1706 459.169 84.5755 454.663 86.4264C450.157 88.2774 445.413 89.9016 440.429 91.2867C435.445 92.6843 431.115 93.3768 427.427 93.3642C423.74 93.3642 420.191 92.6213 416.755 91.1482C413.319 89.6876 410.437 87.3708 408.108 84.223C404.244 78.7458 402.596 72.7649 403.187 66.2678C403.766 59.7707 405.893 53.878 409.556 48.5771C413.205 43.2762 417.774 38.6804 423.249 34.8148C435.759 25.9632 447.879 22.148 459.609 23.3442C471.327 24.553 481.32 30.7605 489.576 41.9919L507.599 23.8101C494.283 8.46133 479.495 0.541422 463.222 0.0629543C446.935 -0.428105 429.907 5.6157 412.136 18.1818C405.163 23.105 399.16 28.6325 394.113 34.7645C389.066 40.8964 385.139 47.4817 382.332 54.5328C379.526 61.5839 378.582 69.0253 379.488 76.8697C380.394 84.714 383.377 92.2184 388.449 99.408L388.437 99.3954Z" fill="#F5F3E7"/>
<path d="M471.465 339.523L415.534 308.914L390.803 323.646L506.227 383.039L548.138 453.474L569.647 440.669L527.737 370.221L530.594 240.405L505.623 255.275L505.862 319.038L506.391 350.05L506.681 359.695L477.28 342.759L471.465 339.523Z" fill="#F5F3E7"/>
<path d="M558.874 543.779L473.58 594.736L386.272 448.45L365.128 461.079L463.549 626L570 562.414L558.874 543.779Z" fill="#F5F3E7"/>
<path d="M384.271 240.972C391.432 229.249 393.396 215.5 389.809 202.254C386.222 188.995 377.6 178.116 365.518 171.594C342.536 159.204 313.853 166.859 300.072 188.995L276.146 223.042L317.453 129.186C322.827 116.973 323.104 103.425 318.233 90.9971C313.362 78.5821 303.935 68.8365 291.702 63.5481C279.506 58.285 266.002 58.0835 253.655 62.9941C241.308 67.9047 231.63 77.3356 226.381 89.5365L177.876 202.379V49.4837C177.863 22.1984 155.674 0 128.401 0C101.127 0 78.9384 22.1984 78.9384 49.4837V54.4069C70.7324 48.3379 60.5882 44.7494 49.6134 44.7494H49.4498C22.1888 44.7494 0 66.9478 0 94.233V625.899H20.1373V426.403C20.1373 410.186 32.9371 396.65 48.6694 396.222C56.6866 395.995 64.2507 398.954 69.9772 404.532C75.7038 410.11 78.8629 417.589 78.8629 425.585V447.607C78.8629 473.986 78.8629 503.877 121.34 526.504L208.006 571.706L217.32 553.839L130.742 508.687C99.0128 491.79 99.0128 472.298 99.0128 447.62V425.597C99.0128 412.112 93.689 399.508 84.023 390.103C74.3571 380.697 61.6077 375.736 48.1157 376.101C37.682 376.391 28.0287 380.067 20.1373 386.048V94.233C20.1373 78.0533 33.2895 64.8954 49.4623 64.8954H49.626C65.7988 64.8954 78.951 78.0533 78.951 94.233V316.645H99.0883V49.4837C99.0883 33.3039 112.24 20.146 128.413 20.146C144.586 20.146 157.738 33.3039 157.738 49.4837V316.645H177.876V253.361L244.883 97.4816C248.004 90.229 253.756 84.6259 261.093 81.7047C268.431 78.7836 276.46 78.8969 283.71 82.0321C290.985 85.1799 296.585 90.9719 299.493 98.3504C302.4 105.729 302.224 113.8 299.027 121.052L216.892 307.668L234.348 317.527L316.723 200.34L317.062 199.811C325.193 186.552 342.284 181.956 355.978 189.322C363.139 193.188 368.262 199.635 370.389 207.504C372.516 215.361 371.345 223.52 367.104 230.471C346.022 264.996 305.093 312.88 304.691 313.359L302.261 316.192L302.299 625.912H322.437L322.411 323.621C331.737 312.566 365.153 272.337 384.296 240.984L384.271 240.972Z" fill="#F5F3E7"/>
</g>
<defs>
<clipPath id="clip0_0_18">
<rect width="570" height="626" fill="white"/>
</clipPath>
</defs>
</svg>
