<svg width="591" height="350" viewBox="0 0 591 350" fill="none" xmlns="http://www.w3.org/2000/svg">
<g clip-path="url(#clip0_44_102)">
<path d="M445.267 240.111C442.505 276.544 429.379 303.423 407.13 310.99C366.21 324.903 309.934 268.223 281.424 184.393C252.914 100.562 262.977 21.3199 303.896 7.4075C334.498 -3.00026 373.692 26.0777 403.434 76.4651" stroke="#F5F3E7" stroke-width="10.6202" stroke-miterlimit="10"/>
<path d="M546.586 311C587.504 297.087 597.566 217.848 569.06 134.016C540.553 50.1835 484.274 -6.49675 443.356 7.41693C402.438 21.3306 392.376 100.569 420.883 184.402C449.389 268.234 505.668 324.914 546.586 311Z" stroke="#F5F3E7" stroke-width="10.6202" stroke-miterlimit="10"/>
<path d="M332.911 185.88C352.433 179.241 357.234 141.439 343.635 101.446C330.036 61.4523 303.186 34.4126 283.664 41.0508C264.142 47.689 259.341 85.4913 272.94 125.485C286.539 165.478 313.389 192.518 332.911 185.88Z" fill="#F5F3E7" stroke="#F5F3E7" stroke-width="10.6202" stroke-miterlimit="10"/>
<path d="M407.904 132.407C407.904 132.407 496.211 188.779 527.397 96.2239" stroke="#F5F3E7" stroke-width="10.6202" stroke-miterlimit="10"/>
<path d="M10.2868 171.479C4.50939 167.055 0.909153 160.635 0.149811 153.403C-0.60953 146.171 1.57291 139.14 6.3042 133.612C15.2995 123.098 30.9377 121.399 41.9826 129.699L60.3183 141.949L21.9636 103.467C16.9775 98.4597 14.2481 91.8115 14.2852 84.7491C14.3224 77.6813 17.1208 71.065 22.1601 66.1107C27.1834 61.1776 33.821 58.496 40.8622 58.5651C47.9034 58.6341 54.4879 61.4378 59.4156 66.4665L104.95 112.951L75.7388 37.4044C70.5243 23.9221 77.2522 8.71401 90.7345 3.49952C104.217 -1.71498 119.425 5.01289 124.639 18.4952L125.579 20.9272C128.479 16.3605 132.806 12.6488 138.233 10.5513L138.313 10.5194C151.795 5.30494 167.003 12.0328 172.218 25.5151L235.678 189.65L238.843 197.833L273.794 288.226L263.838 292.076L228.887 201.682L225.722 193.5C222.626 185.487 213.711 181.244 205.852 184.037C201.843 185.46 198.673 188.365 196.904 192.214C195.136 196.07 195.003 200.365 196.533 204.316L200.743 215.202C205.783 228.233 211.491 243.005 194.817 262.302L160.61 301.199L152.597 294.152L186.773 255.288C199.225 240.871 195.502 231.244 190.787 219.046L186.576 208.161C184.001 201.496 184.224 194.254 187.203 187.759C190.182 181.265 195.534 176.374 202.273 173.974C207.482 172.121 212.962 172.089 218.007 173.539L162.261 29.3702C159.171 21.3786 150.154 17.3907 142.163 20.4812L142.083 20.513C134.091 23.6035 130.098 32.62 133.194 40.6117L175.685 150.514L165.729 154.364L114.688 22.345C111.598 14.3533 102.581 10.3654 94.5896 13.4559C86.5979 16.5464 82.6048 25.5629 85.7005 33.5546L136.741 165.568L126.785 169.418L114.694 138.147L51.7904 73.9324C48.8645 70.9428 44.9457 69.2755 40.7613 69.233C36.577 69.1958 32.6263 70.7835 29.642 73.72C26.6471 76.6671 24.9851 80.6019 24.9585 84.8022C24.9373 89.0024 26.5568 92.9584 29.5252 95.9321L105.778 172.445L99.0341 180.649L35.9238 138.487L35.653 138.296C29.1004 133.299 19.7706 134.292 14.4127 140.553C11.609 143.829 10.3133 147.997 10.7647 152.288C11.216 156.579 13.3507 160.386 16.7757 163.004C33.7945 176.035 63.1699 191.875 63.4672 192.034L65.2036 192.968L124.358 346.016L114.402 349.865L56.665 200.488C49.9424 196.808 25.7391 183.315 10.2868 171.484V171.479Z" fill="#F5F3E7"/>
</g>
<defs>
<clipPath id="clip0_44_102">
<rect width="590.587" height="349.86" fill="white"/>
</clipPath>
</defs>
</svg>
