<?xml version="1.0" encoding="UTF-8"?>
<svg id="Layer_1" data-name="Layer 1" xmlns="http://www.w3.org/2000/svg" viewBox="0 0 499 499">
  <defs>
    <style>
      .cls-1 {
        fill: #f6f4e8;
      }
    </style>
  </defs>
  <path class="cls-1" d="M118.56,138.71l15.63-1.59c0,8.77,2.87,15.7,8.61,20.77,5.74,5.08,13.21,7.62,22.41,7.62,20.84,0,31.26-7.23,31.26-21.69,0-3.72-1.14-6.76-3.43-9.13-2.29-2.36-5.34-4.08-9.17-5.14-2.92-.96-7.71-2.05-14.35-3.27-1.54-.27-5.02-.96-10.45-2.07-8.03-1.86-14.55-3.95-19.58-6.26s-9.24-5.46-12.64-9.45c-3.46-4.41-5.18-9.97-5.18-16.67,0-5.37,1.16-10.17,3.47-14.39s5.41-7.6,9.29-10.13c3.88-2.52,8.16-4.43,12.84-5.7,4.68-1.28,9.62-1.91,14.83-1.91,13.29,0,23.91,2.99,31.86,8.97,7.95,5.98,12.53,15.14,13.76,27.47l-15.39,2.71c-.16-8.51-2.95-15.12-8.37-19.86-5.42-4.73-12.81-7.1-22.17-7.1-4.09,0-7.99.68-11.68,2.03-3.7,1.36-6.83,3.55-9.41,6.58-2.58,3.03-3.87,6.59-3.87,10.69.05,2.39.68,4.56,1.87,6.5,1.2,1.94,2.71,3.56,4.55,4.86,1.83,1.3,4.24,2.49,7.22,3.55,2.98,1.06,5.91,1.93,8.81,2.59,2.9.67,6.37,1.32,10.41,1.95,10.42,1.7,18.27,3.5,23.56,5.38,5.29,1.89,9.61,4.82,12.96,8.81,3.72,4.2,5.58,10.13,5.58,17.78,0,5.16-.84,9.77-2.51,13.84s-3.93,7.42-6.78,10.05c-2.84,2.63-6.26,4.82-10.25,6.58s-8.16,3-12.52,3.75c-4.36.74-9.01,1.12-13.96,1.12-6.54,0-12.64-.85-18.3-2.55-5.66-1.7-10.66-4.15-14.99-7.34-4.33-3.19-7.74-7.31-10.21-12.36-2.47-5.05-3.71-10.71-3.71-16.99Z"/>
  <path class="cls-1" d="M282.76,446.33v12.92h-73.84v-114.35h14.67v101.43h59.17Z"/>
  <path class="cls-1" d="M405.58,269.79l-40.99-65.55h17.14l19.3,32.69,1.99,3.43,9.89,17.62,2.79-5.02,9.17-16.03,19.3-32.69h17.3l-40.99,65.55v48.8h-14.91v-48.8Z"/>
  <path class="cls-1" d="M249.5,499c-66.64,0-129.3-25.95-176.42-73.08C25.95,378.8,0,316.14,0,249.5S25.95,120.2,73.08,73.08C120.2,25.95,182.85,0,249.5,0s129.3,25.95,176.42,73.08c47.12,47.12,73.08,109.78,73.08,176.42s-25.95,129.3-73.08,176.42c-47.12,47.12-109.78,73.08-176.42,73.08ZM249.5,16c-62.37,0-121.01,24.29-165.11,68.39S16,187.13,16,249.5s24.29,121.01,68.39,165.11,102.74,68.39,165.11,68.39,121.01-24.29,165.11-68.39,68.39-102.74,68.39-165.11-24.29-121.01-68.39-165.11S311.87,16,249.5,16Z"/>
  <polygon class="cls-1" points="258.95 261.17 218 199.03 228.86 191.88 259.14 237.83 371.99 72.29 382.74 79.61 258.95 261.17"/>
  <polygon class="cls-1" points="427.82 367.92 256.78 255.79 40.15 231.62 41.59 218.7 261.31 243.21 434.94 357.05 427.82 367.92"/>
  <polygon class="cls-1" points="143.67 341.38 136.03 330.87 255.22 244.24 418.82 126.59 426.41 137.15 262.84 254.78 143.67 341.38"/>
  <rect class="cls-1" x="300.82" y="231.36" width="13" height="146.62" transform="translate(-124.59 277.74) rotate(-41.18)"/>
</svg>