<svg width="355" height="494" viewBox="0 0 355 494" fill="none" xmlns="http://www.w3.org/2000/svg">
<path d="M314.321 459.298C286.559 472.198 249.683 459.501 210.493 423.551C173.31 389.437 137.614 337.907 109.991 278.457C82.3685 219.007 65.9993 158.493 63.912 108.076C61.7076 54.9361 75.7843 18.5652 103.547 5.66573C131.309 -7.23375 168.185 5.46298 207.374 41.4126C244.558 75.5275 280.254 127.057 307.877 186.507C335.499 245.957 351.867 306.467 353.956 356.888C356.16 410.028 342.086 446.392 314.319 459.294L314.321 459.298ZM111.131 21.9881C90.7045 31.4789 80.0526 62.5781 81.9084 107.314C83.9032 155.426 99.6833 213.506 126.334 270.864C152.984 328.221 187.201 377.735 222.682 410.289C255.675 440.557 286.313 452.471 306.739 442.98C327.165 433.49 337.817 402.39 335.962 357.655C333.962 309.544 318.187 251.462 291.536 194.105C264.886 136.747 230.669 87.2335 195.188 54.6797C162.195 24.4119 131.557 12.4973 111.131 21.9881Z" fill="#F5F3E7"/>
<path d="M251.376 488.545C223.629 501.437 186.767 488.734 147.588 452.78C110.413 418.661 74.7289 367.131 47.1044 307.677C19.4798 248.223 3.10734 187.714 1.00846 137.298C-1.20827 84.1691 12.8546 47.8047 40.602 34.9122C55.1225 28.1654 72.0341 28.3375 90.8672 35.4235L84.5179 52.2665C70.3825 46.9436 58.16 46.595 48.1883 51.2281C27.7732 60.7138 17.1325 91.8078 18.9967 136.539C21.0049 184.646 36.7857 242.725 63.4362 300.083C90.0866 357.441 124.299 406.957 159.77 439.514C192.755 469.786 223.382 481.706 243.797 472.22C252.549 468.154 259.516 460.243 264.5 448.708L281.026 455.847C274.23 471.558 264.256 482.555 251.374 488.54L251.376 488.545Z" fill="#F5F3E7"/>
<path d="M306.844 311.883L192.493 240.976L192.552 153.944L210.465 154.028L210.411 231.001L316.216 296.606L306.844 311.883Z" fill="#F5F3E7"/>
</svg>
