<svg width="561" height="386" viewBox="0 0 561 386" fill="none" xmlns="http://www.w3.org/2000/svg">
<path d="M339.79 0C340.717 0.463304 341.917 0.354291 342.939 0.626823C343.812 0.858475 344.67 1.67607 345.884 1.60794L546.743 120.146L546.92 120.718L237.963 298.368C229.43 303.723 218.702 303.914 209.351 300.534C157.402 269.997 105.698 239.024 53.0802 209.631C52.3032 209.413 48.4455 210.708 47.5594 211.144C42.9793 213.406 44.3833 219.429 46.3599 223.081C75.0677 240.005 103.748 256.957 132.661 273.526C154.771 286.199 176.69 299.471 198.541 312.73C210.66 318.358 224.018 319.489 237.009 315.592C241.276 314.311 245.733 311.967 250.027 309.828L559.42 131.633L560.674 166.926C560.483 172.226 560.919 177.609 560.674 182.896C560.279 191.263 558.943 196.25 551.8 201.333C445.993 261.576 340.772 322.855 235.237 383.561C228.449 386.464 220.556 386.709 213.468 384.651C145.27 345.216 77.1124 305.712 9.50044 265.241C-0.123354 258.251 0.789953 251.274 0.381009 240.468C-0.096091 227.877 -0.246037 214.414 0.653638 201.823C1.22616 193.784 1.90773 190.595 8.36903 185.444C112.936 123.375 218.593 63.0093 323.542 1.55343C325.518 1.17189 327.345 0.190772 329.417 0H339.79ZM480.767 120.732L454.608 105.374L413.414 129.929L294.384 58.3763L276.172 68.9096L421.265 156.242L480.78 120.732H480.767ZM171.905 131.374L286.532 165.127L346.211 200.992L364.163 190.336L304.212 154.171C285.796 131.483 267.353 108.836 248.964 86.12C248.8 85.9156 248.691 85.6976 248.678 85.4251L229.062 97.0485L228.817 97.8389L269.711 143.965C259.147 140.735 248.759 136.947 238.25 133.527C222.942 128.54 207.429 123.675 192.066 119.151C185.687 123.225 178.939 126.727 172.532 130.747C172.355 130.856 171.742 131.17 171.892 131.36L171.905 131.374ZM199.645 166.953C176.867 154.907 148.119 145.614 123.309 157.469C98.5001 169.324 104.007 187.733 123.309 201.36C148.037 218.788 171.81 221.323 200.927 214.06C212.145 211.253 224.427 205.475 236 208.909C241.617 210.572 255.057 218.066 254.812 224.825C254.512 232.66 242.952 237.866 236.205 238.397C222.573 239.474 210.196 234.296 198.65 227.768L183.942 240.509C183.847 240.891 184.174 240.986 184.405 241.163C185.441 241.926 187.309 242.839 188.522 243.493C213.808 257.27 250.818 264.792 275.573 246.082C302.236 225.929 270.284 204.63 251.867 195.869C233.451 187.107 217.98 185.063 197.955 189.246C184.719 192.012 168.511 199.548 155.071 196.822C144.765 194.738 127.14 183.114 142.557 173.943C156.12 165.876 173.923 174.134 186.327 180.92L199.632 166.994L199.645 166.953Z" fill="#F5F3E7"/>
</svg>
