<svg width="591" height="972" viewBox="0 0 591 972" fill="none" xmlns="http://www.w3.org/2000/svg">
<path d="M407.046 771.898V199.572C407.046 94.8772 318.161 10 208.523 10C98.8849 10 10 94.8772 10 199.572V771.898C10 876.593 98.8849 961.47 208.524 961.47C218.402 961.47 228.111 960.781 237.602 959.451M353.15 959.451C362.641 960.781 372.35 961.47 382.227 961.47C491.865 961.47 580.75 876.593 580.75 771.898V199.572C580.75 94.8772 491.865 10 382.226 10C272.588 10 183.703 94.8772 183.703 199.572V771.898C183.703 846.851 229.261 911.647 295.375 942.412M353.15 959.451C343.333 958.075 333.749 956.013 324.453 953.317M353.15 959.451C449.012 946.016 522.593 867.161 522.593 771.898V199.572C522.593 94.8772 433.708 10 324.07 10C214.432 10 125.547 94.8772 125.547 199.572V771.898C125.547 857.404 184.836 929.691 266.297 953.317M353.15 959.451C343.659 960.781 333.949 961.47 324.071 961.47C314.326 961.47 304.745 960.799 295.375 959.504M324.453 953.317C314.4 950.401 304.684 946.744 295.375 942.412M324.453 953.317C405.914 929.691 465.203 857.404 465.203 771.898V199.572C465.203 94.8772 376.318 10 266.679 10C157.03 10 68.1562 94.8772 68.1562 199.572V771.898C68.1562 867.16 141.748 946.015 237.602 959.451M324.453 953.317C315.038 956.048 305.326 958.128 295.375 959.504M295.375 942.412C361.49 911.647 407.047 846.851 407.047 771.898M295.375 942.412C286.067 946.744 276.351 950.401 266.297 953.317M295.375 959.504C285.425 958.128 275.713 956.047 266.297 953.317M295.375 959.504C286.006 960.799 276.425 961.47 266.68 961.47C256.802 961.47 247.093 960.781 237.602 959.451M266.297 953.317C257.002 956.012 247.419 958.075 237.602 959.451" stroke="#202020" stroke-width="20" stroke-miterlimit="10"/>
</svg>
