<svg width="406" height="408" viewBox="0 0 406 408" fill="none" xmlns="http://www.w3.org/2000/svg">
<mask id="path-1-inside-1_67_28" fill="white">
<path d="M398.246 7.62539C393.601 2.95763 387.416 0.387658 380.836 0.379917L25.0108 0.000613316C18.4311 -0.045832 12.2538 2.54737 7.60157 7.1919C2.9493 11.8364 0.387061 18.0059 0.37932 24.5779L1.62767e-05 382.122C-0.0154655 395.692 11.0153 406.738 24.5773 406.754L379.652 407.133H379.675C393.199 407.133 404.237 396.133 404.284 382.602L405.414 25.0579C405.437 18.4781 402.89 12.2854 398.246 7.61765V7.62539ZM393.446 382.571C393.423 390.142 387.246 396.296 379.675 396.296H379.66L24.5851 395.916C16.9913 395.909 10.8218 389.724 10.8295 382.13L11.2088 24.5857C11.2088 20.9088 12.6486 17.4486 15.2496 14.8554C17.8505 12.2622 21.303 10.8301 24.9721 10.8301H24.9876L380.813 11.2094C384.498 11.2094 387.958 12.6492 390.551 15.2657C393.152 17.8743 394.577 21.3423 394.561 25.0269L393.431 382.571H393.446Z"/>
<path d="M211.514 221.963L210.26 219.873L211.096 46.7946C209.95 41.4456 206.567 37.0798 200.646 38.0164C196.628 38.6512 195.777 41.9875 194.375 45.1225V220.717C192.641 224.618 162.808 218.511 159.255 224.897C158.078 227.018 157.591 270.313 158.419 273.394C160.927 282.799 187.068 277.047 194.375 279.246V361.191C196.597 371.517 204.71 371.479 210.26 363.699V280.082C212.179 275.747 239.884 283.503 245.38 274.23C247.981 269.841 248.004 230.145 245.38 225.733C241.154 218.627 219.417 223.326 211.514 221.971V221.963ZM230.324 260.846C228.66 265.219 182.447 261.852 175.557 262.936L174.721 237.848H229.906C230.843 238.513 230.734 259.77 230.324 260.838V260.846Z"/>
<path d="M295.936 360.727C295.92 364.651 299.086 367.848 303.011 367.871H303.049C306.959 367.871 310.14 364.713 310.156 360.796L311.038 182.121L296.826 181.997L295.943 360.727H295.936Z"/>
<path d="M338.727 127.486L310.178 127.695V127.803H287.25V127.865L268.076 128.004C266.171 128.02 264.352 128.794 263.028 130.156C261.705 131.519 260.977 133.361 261.024 135.265L261.883 174.798C261.968 178.637 265.088 181.718 268.927 181.749L289.007 181.92V181.989H311.037V182.113L339.245 182.353C339.268 182.353 339.284 182.353 339.307 182.353C341.196 182.353 343.007 181.602 344.347 180.263C345.693 178.908 346.444 177.066 346.413 175.154L345.895 134.491C345.84 130.582 342.651 127.416 338.734 127.478L338.727 127.486ZM275.94 167.599L275.383 142.17L331.76 141.752L332.1 168.087L275.94 167.607V167.599Z"/>
<path d="M310.177 44.6965C310.177 40.7718 306.996 37.5903 303.071 37.5903C299.146 37.5903 295.965 40.7718 295.965 44.6965V127.803L310.177 127.694V44.6965Z"/>
<path d="M95.2812 361.601C95.2812 365.525 98.4628 368.707 102.387 368.707C106.312 368.707 109.494 365.525 109.494 361.601V213.757L95.2812 213.665V361.608V361.601Z"/>
<path d="M141.472 160.601C140.125 159.277 138.314 158.542 136.425 158.565L109.51 158.797V159.014H95.2979V158.921L65.0929 159.184C63.1809 159.2 61.3618 159.989 60.0381 161.359C58.7144 162.737 57.9945 164.587 58.0564 166.499L59.2253 206.559C59.3337 210.383 62.4532 213.432 66.285 213.456L86.3649 213.595V213.657H109.51V213.75L136.774 213.936H136.82C138.709 213.936 140.512 213.185 141.852 211.853C143.198 210.506 143.942 208.68 143.934 206.775L143.609 165.617C143.593 163.728 142.827 161.932 141.488 160.609L141.472 160.601ZM73.2208 199.29L72.4622 173.335L129.435 172.839L129.644 199.677L73.2208 199.298V199.29Z"/>
<path d="M108.621 44.6424C108.59 40.7178 105.393 37.5672 101.46 37.5905C97.5358 37.6214 94.3775 40.8262 94.4084 44.7508L95.2909 158.921L109.503 158.797L108.621 44.6424Z"/>
</mask>
<path d="M398.246 7.62539C393.601 2.95763 387.416 0.387658 380.836 0.379917L25.0108 0.000613316C18.4311 -0.045832 12.2538 2.54737 7.60157 7.1919C2.9493 11.8364 0.387061 18.0059 0.37932 24.5779L1.62767e-05 382.122C-0.0154655 395.692 11.0153 406.738 24.5773 406.754L379.652 407.133H379.675C393.199 407.133 404.237 396.133 404.284 382.602L405.414 25.0579C405.437 18.4781 402.89 12.2854 398.246 7.61765V7.62539ZM393.446 382.571C393.423 390.142 387.246 396.296 379.675 396.296H379.66L24.5851 395.916C16.9913 395.909 10.8218 389.724 10.8295 382.13L11.2088 24.5857C11.2088 20.9088 12.6486 17.4486 15.2496 14.8554C17.8505 12.2622 21.303 10.8301 24.9721 10.8301H24.9876L380.813 11.2094C384.498 11.2094 387.958 12.6492 390.551 15.2657C393.152 17.8743 394.577 21.3423 394.561 25.0269L393.431 382.571H393.446Z" fill="#F5F3E7"/>
<path d="M211.514 221.963L210.26 219.873L211.096 46.7946C209.95 41.4456 206.567 37.0798 200.646 38.0164C196.628 38.6512 195.777 41.9875 194.375 45.1225V220.717C192.641 224.618 162.808 218.511 159.255 224.897C158.078 227.018 157.591 270.313 158.419 273.394C160.927 282.799 187.068 277.047 194.375 279.246V361.191C196.597 371.517 204.71 371.479 210.26 363.699V280.082C212.179 275.747 239.884 283.503 245.38 274.23C247.981 269.841 248.004 230.145 245.38 225.733C241.154 218.627 219.417 223.326 211.514 221.971V221.963ZM230.324 260.846C228.66 265.219 182.447 261.852 175.557 262.936L174.721 237.848H229.906C230.843 238.513 230.734 259.77 230.324 260.838V260.846Z" fill="#F5F3E7"/>
<path d="M295.936 360.727C295.92 364.651 299.086 367.848 303.011 367.871H303.049C306.959 367.871 310.14 364.713 310.156 360.796L311.038 182.121L296.826 181.997L295.943 360.727H295.936Z" fill="#F5F3E7"/>
<path d="M338.727 127.486L310.178 127.695V127.803H287.25V127.865L268.076 128.004C266.171 128.02 264.352 128.794 263.028 130.156C261.705 131.519 260.977 133.361 261.024 135.265L261.883 174.798C261.968 178.637 265.088 181.718 268.927 181.749L289.007 181.92V181.989H311.037V182.113L339.245 182.353C339.268 182.353 339.284 182.353 339.307 182.353C341.196 182.353 343.007 181.602 344.347 180.263C345.693 178.908 346.444 177.066 346.413 175.154L345.895 134.491C345.84 130.582 342.651 127.416 338.734 127.478L338.727 127.486ZM275.94 167.599L275.383 142.17L331.76 141.752L332.1 168.087L275.94 167.607V167.599Z" fill="#F5F3E7"/>
<path d="M310.177 44.6965C310.177 40.7718 306.996 37.5903 303.071 37.5903C299.146 37.5903 295.965 40.7718 295.965 44.6965V127.803L310.177 127.694V44.6965Z" fill="#F5F3E7"/>
<path d="M95.2812 361.601C95.2812 365.525 98.4628 368.707 102.387 368.707C106.312 368.707 109.494 365.525 109.494 361.601V213.757L95.2812 213.665V361.608V361.601Z" fill="#F5F3E7"/>
<path d="M141.472 160.601C140.125 159.277 138.314 158.542 136.425 158.565L109.51 158.797V159.014H95.2979V158.921L65.0929 159.184C63.1809 159.2 61.3618 159.989 60.0381 161.359C58.7144 162.737 57.9945 164.587 58.0564 166.499L59.2253 206.559C59.3337 210.383 62.4532 213.432 66.285 213.456L86.3649 213.595V213.657H109.51V213.75L136.774 213.936H136.82C138.709 213.936 140.512 213.185 141.852 211.853C143.198 210.506 143.942 208.68 143.934 206.775L143.609 165.617C143.593 163.728 142.827 161.932 141.488 160.609L141.472 160.601ZM73.2208 199.29L72.4622 173.335L129.435 172.839L129.644 199.677L73.2208 199.298V199.29Z" fill="#F5F3E7"/>
<path d="M108.621 44.6424C108.59 40.7178 105.393 37.5672 101.46 37.5905C97.5358 37.6214 94.3775 40.8262 94.4084 44.7508L95.2909 158.921L109.503 158.797L108.621 44.6424Z" fill="#F5F3E7"/>
<path d="M398.246 7.62539C393.601 2.95763 387.416 0.387658 380.836 0.379917L25.0108 0.000613316C18.4311 -0.045832 12.2538 2.54737 7.60157 7.1919C2.9493 11.8364 0.387061 18.0059 0.37932 24.5779L1.62767e-05 382.122C-0.0154655 395.692 11.0153 406.738 24.5773 406.754L379.652 407.133H379.675C393.199 407.133 404.237 396.133 404.284 382.602L405.414 25.0579C405.437 18.4781 402.89 12.2854 398.246 7.61765V7.62539ZM393.446 382.571C393.423 390.142 387.246 396.296 379.675 396.296H379.66L24.5851 395.916C16.9913 395.909 10.8218 389.724 10.8295 382.13L11.2088 24.5857C11.2088 20.9088 12.6486 17.4486 15.2496 14.8554C17.8505 12.2622 21.303 10.8301 24.9721 10.8301H24.9876L380.813 11.2094C384.498 11.2094 387.958 12.6492 390.551 15.2657C393.152 17.8743 394.577 21.3423 394.561 25.0269L393.431 382.571H393.446Z" stroke="#F5F3E7" stroke-width="1.54818" mask="url(#path-1-inside-1_67_28)"/>
<path d="M211.514 221.963L210.26 219.873L211.096 46.7946C209.95 41.4456 206.567 37.0798 200.646 38.0164C196.628 38.6512 195.777 41.9875 194.375 45.1225V220.717C192.641 224.618 162.808 218.511 159.255 224.897C158.078 227.018 157.591 270.313 158.419 273.394C160.927 282.799 187.068 277.047 194.375 279.246V361.191C196.597 371.517 204.71 371.479 210.26 363.699V280.082C212.179 275.747 239.884 283.503 245.38 274.23C247.981 269.841 248.004 230.145 245.38 225.733C241.154 218.627 219.417 223.326 211.514 221.971V221.963ZM230.324 260.846C228.66 265.219 182.447 261.852 175.557 262.936L174.721 237.848H229.906C230.843 238.513 230.734 259.77 230.324 260.838V260.846Z" stroke="#F5F3E7" stroke-width="1.54818" mask="url(#path-1-inside-1_67_28)"/>
<path d="M295.936 360.727C295.92 364.651 299.086 367.848 303.011 367.871H303.049C306.959 367.871 310.14 364.713 310.156 360.796L311.038 182.121L296.826 181.997L295.943 360.727H295.936Z" stroke="#F5F3E7" stroke-width="1.54818" mask="url(#path-1-inside-1_67_28)"/>
<path d="M338.727 127.486L310.178 127.695V127.803H287.25V127.865L268.076 128.004C266.171 128.02 264.352 128.794 263.028 130.156C261.705 131.519 260.977 133.361 261.024 135.265L261.883 174.798C261.968 178.637 265.088 181.718 268.927 181.749L289.007 181.92V181.989H311.037V182.113L339.245 182.353C339.268 182.353 339.284 182.353 339.307 182.353C341.196 182.353 343.007 181.602 344.347 180.263C345.693 178.908 346.444 177.066 346.413 175.154L345.895 134.491C345.84 130.582 342.651 127.416 338.734 127.478L338.727 127.486ZM275.94 167.599L275.383 142.17L331.76 141.752L332.1 168.087L275.94 167.607V167.599Z" stroke="#F5F3E7" stroke-width="1.54818" mask="url(#path-1-inside-1_67_28)"/>
<path d="M310.177 44.6965C310.177 40.7718 306.996 37.5903 303.071 37.5903C299.146 37.5903 295.965 40.7718 295.965 44.6965V127.803L310.177 127.694V44.6965Z" stroke="#F5F3E7" stroke-width="1.54818" mask="url(#path-1-inside-1_67_28)"/>
<path d="M95.2812 361.601C95.2812 365.525 98.4628 368.707 102.387 368.707C106.312 368.707 109.494 365.525 109.494 361.601V213.757L95.2812 213.665V361.608V361.601Z" stroke="#F5F3E7" stroke-width="1.54818" mask="url(#path-1-inside-1_67_28)"/>
<path d="M141.472 160.601C140.125 159.277 138.314 158.542 136.425 158.565L109.51 158.797V159.014H95.2979V158.921L65.0929 159.184C63.1809 159.2 61.3618 159.989 60.0381 161.359C58.7144 162.737 57.9945 164.587 58.0564 166.499L59.2253 206.559C59.3337 210.383 62.4532 213.432 66.285 213.456L86.3649 213.595V213.657H109.51V213.75L136.774 213.936H136.82C138.709 213.936 140.512 213.185 141.852 211.853C143.198 210.506 143.942 208.68 143.934 206.775L143.609 165.617C143.593 163.728 142.827 161.932 141.488 160.609L141.472 160.601ZM73.2208 199.29L72.4622 173.335L129.435 172.839L129.644 199.677L73.2208 199.298V199.29Z" stroke="#F5F3E7" stroke-width="1.54818" mask="url(#path-1-inside-1_67_28)"/>
<path d="M108.621 44.6424C108.59 40.7178 105.393 37.5672 101.46 37.5905C97.5358 37.6214 94.3775 40.8262 94.4084 44.7508L95.2909 158.921L109.503 158.797L108.621 44.6424Z" stroke="#F5F3E7" stroke-width="1.54818" mask="url(#path-1-inside-1_67_28)"/>
</svg>
