<svg width="591" height="742" viewBox="0 0 591 742" fill="none" xmlns="http://www.w3.org/2000/svg" style="rotate: 180deg">
<path d="M10 741.898V199.572C10 94.8772 98.8849 10 208.523 10C318.161 10 407.046 94.8772 407.046 199.572V741.898M68.1562 741.898V199.572C68.1562 94.8772 157.03 10 266.679 10C376.318 10 465.203 94.8772 465.203 199.572V741.898M125.547 741.898V199.572C125.547 94.8772 214.432 10 324.07 10C433.708 10 522.593 94.8772 522.593 199.572V741.898M183.703 741.898V199.572C183.703 94.8772 272.588 10 382.226 10C491.865 10 580.75 94.8772 580.75 199.572V741.898" stroke="#202020" stroke-width="20" stroke-miterlimit="10"/>
</svg>
