<svg width="627" height="432" viewBox="0 0 627 432" fill="none" xmlns="http://www.w3.org/2000/svg">
<path d="M622.469 149.706C626.916 142.427 628.142 133.883 625.913 125.651C623.684 117.413 618.322 110.65 610.812 106.609C596.527 98.9118 578.699 103.663 570.13 117.419L555.254 138.572L580.928 80.2615C584.266 72.6769 584.44 64.2516 581.408 56.5424C578.381 48.827 572.522 42.7742 564.912 39.4862C557.334 36.2108 548.933 36.0925 541.268 39.1375C533.596 42.1888 527.574 48.0423 524.317 55.627L494.172 125.732V30.7434C494.172 13.7931 480.379 0 463.428 0C446.478 0 432.685 13.7931 432.685 30.7434V33.8009C427.579 30.0335 421.277 27.8041 414.458 27.8041H414.359C397.408 27.8041 383.615 41.5972 383.615 58.5475V388.86H396.132V264.921C396.132 254.845 404.09 246.433 413.867 246.165C418.855 246.022 423.55 247.859 427.112 251.327C430.674 254.796 432.635 259.441 432.635 264.41V278.098C432.635 294.481 432.635 313.057 459.032 327.111L512.897 355.189L518.682 344.093L464.867 316.039C445.152 305.54 445.152 293.429 445.152 278.098V264.41C445.152 256.035 441.845 248.201 435.836 242.36C429.833 236.519 421.906 233.43 413.524 233.661C407.042 233.841 401.039 236.12 396.132 239.838V58.5475C396.132 48.4969 404.308 40.3207 414.359 40.3207H414.458C424.509 40.3207 432.685 48.4969 432.685 58.5475V196.728H445.202V30.7434C445.202 20.6928 453.378 12.5165 463.428 12.5165C473.479 12.5165 481.655 20.6928 481.655 30.7434V196.728H494.172V157.409L535.819 60.5713C537.755 56.0629 541.336 52.5819 545.894 50.7698C550.453 48.9577 555.447 49.0262 559.955 50.9753C564.476 52.9306 567.963 56.5299 569.763 61.1131C571.563 65.6963 571.463 70.7091 569.476 75.2175L518.426 191.154L529.274 197.276L580.474 124.468L580.685 124.144C585.742 115.912 596.365 113.047 604.871 117.631C609.324 120.028 612.506 124.038 613.826 128.92C615.146 133.802 614.424 138.871 611.784 143.187C598.676 164.633 573.244 194.386 572.989 194.685L571.482 196.441L571.5 388.86H584.017L583.998 201.055C589.796 194.187 610.563 169.191 622.463 149.713L622.469 149.706Z" fill="#F5F3E7"/>
<path d="M4.53343 149.706C0.0810275 142.427 -1.13949 133.883 1.0836 125.651C3.31291 117.413 8.67447 110.65 16.1844 106.609C30.4694 98.9118 48.2977 103.663 56.8662 117.419L71.7429 138.572L46.0684 80.2615C42.7307 72.6769 42.5563 64.2516 45.5889 56.5424C48.6153 48.827 54.475 42.7742 62.0846 39.4862C69.663 36.2108 78.0634 36.0925 85.729 39.1375C93.4008 42.1888 99.4225 48.0423 102.679 55.627L132.825 125.732V30.7434C132.819 13.7931 146.612 0 163.562 0C180.512 0 194.305 13.7931 194.305 30.7434V33.8009C199.412 30.0335 205.713 27.8041 212.532 27.8041H212.632C229.582 27.8041 243.375 41.5972 243.375 58.5475V388.86H230.859V264.915C230.859 254.839 222.9 246.426 213.124 246.159C208.136 246.015 203.44 247.852 199.879 251.321C196.317 254.789 194.355 259.435 194.355 264.404V278.091C194.355 294.475 194.355 313.05 167.958 327.105L114.094 355.183L108.309 344.086L162.123 316.033C181.839 305.534 181.839 293.422 181.839 278.091V264.404C181.839 256.029 185.145 248.195 191.154 242.354C197.157 236.513 205.084 233.424 213.466 233.654C219.949 233.835 225.952 236.114 230.859 239.832V58.5475C230.859 48.4969 222.682 40.3207 212.632 40.3207H212.532C202.482 40.3207 194.305 48.4969 194.305 58.5475V196.728H181.789V30.7434C181.789 20.6928 173.613 12.5165 163.562 12.5165C153.511 12.5165 145.335 20.6928 145.335 30.7434V196.728H132.819V157.409L91.1715 60.5713C89.2349 56.0629 85.6543 52.5819 81.096 50.7698C76.5378 48.9577 71.5436 49.0262 67.0352 50.9753C62.5143 52.9306 59.0271 56.5299 57.2274 61.1131C55.4278 65.6963 55.5274 70.7091 57.5139 75.2175L108.564 191.154L97.7162 197.276L46.5168 124.468L46.305 124.144C41.2486 115.912 30.6251 113.047 22.1188 117.631C17.6664 120.028 14.4844 124.038 13.1642 128.92C11.8441 133.802 12.5664 138.871 15.2067 143.187C28.3148 164.633 53.7465 194.386 54.0018 194.685L55.5087 196.441L55.4901 388.86H42.9735L42.9922 201.055C37.1947 194.187 16.4272 169.191 4.5272 149.713L4.53343 149.706Z" fill="#F5F3E7"/>
<path d="M294.325 162.809L350.381 300.011H288.527" stroke="#F5F3E7" stroke-width="12.4543" stroke-miterlimit="10"/>
<path d="M122.102 261.732C129.032 261.732 134.65 256.114 134.65 249.184C134.65 242.254 129.032 236.637 122.102 236.637C115.172 236.637 109.555 242.254 109.555 249.184C109.555 256.114 115.172 261.732 122.102 261.732Z" fill="#F5F3E7" stroke="#F5F3E7" stroke-width="12.4543" stroke-miterlimit="10"/>
<path d="M498.993 261.732C505.923 261.732 511.541 256.114 511.541 249.184C511.541 242.254 505.923 236.637 498.993 236.637C492.063 236.637 486.445 242.254 486.445 249.184C486.445 256.114 492.063 261.732 498.993 261.732Z" fill="#F5F3E7" stroke="#F5F3E7" stroke-width="12.4543" stroke-miterlimit="10"/>
<path d="M274.174 388.424C274.174 388.424 291.94 448.684 346.066 415.032" stroke="#F5F3E7" stroke-width="12.4543" stroke-miterlimit="10"/>
</svg>
