<svg width="361" height="512" viewBox="0 0 361 512" fill="none" xmlns="http://www.w3.org/2000/svg">
<path d="M328.921 500.68C329.391 499.29 335.821 491.94 336.371 491.74C336.621 491.65 338.161 493.63 340.841 492.04C339.641 491.69 339.081 491.76 337.861 491.15C343.481 491.73 344.961 487.09 347.991 483.7L348.591 31.3C347.191 25.72 344.351 19.59 337.861 19.68C338.901 18.95 340.261 19.33 339.951 18.49C338.211 16.93 335.981 19.13 335.781 19.09C335.241 18.97 331.711 12.02 327.441 13.13C326.861 13.28 319.121 20.46 317.901 20.28C317.471 20.22 313.411 16.01 311.051 14.92C308.291 13.64 305.331 12.79 302.411 11.94C210.101 13.5 116.571 8.79 24.9509 14.32C17.5409 16.35 12.6809 26.54 11.8409 33.69C11.5509 36.17 12.3009 49.12 11.8409 49.78C11.5409 50.2 3.07095 51.48 1.71095 51.87C2.17095 27.1 0.410948 7.91 29.4109 0H305.381C309.861 1.42 314.531 2.75 318.491 5.36C320.391 6.61 325.151 12.41 325.641 12.51C326.101 12.6 331.851 8.66 333.981 8.34C347.531 6.29 358.701 17.87 360.501 30.69V480.11C359.501 494.17 342.511 509.4 328.911 500.67L328.921 500.68Z" fill="#F5F3E7"/>
<path d="M14.2109 482.2C15.7709 491.47 23.5409 497.42 32.3909 499.49H302.401C303.681 498.55 305.421 498.65 306.871 498.3C312.181 497.02 314.761 494.35 317.901 489.96C318.501 490.02 325.671 497.61 326.541 498.3C319.481 505.81 311.821 511.08 301.211 512.01L29.4109 511.41C-2.16905 502.69 2.07095 478.54 1.69095 452.4L11.8209 453.89L14.2009 482.2H14.2109Z" fill="#F5F3E7"/>
<path d="M166.591 279.54C125.681 283.7 129.831 349.42 173.741 346.3C216.661 343.24 212.321 274.89 166.591 279.54ZM173.711 335.01C143.911 338.1 140.901 294.79 166.561 290.9C197.991 286.15 201.711 332.11 173.711 335.01Z" fill="#F5F3E7"/>
<path d="M337.861 491.14C334.301 489.34 333.041 487.08 331.301 483.69V27.12C332.951 23.18 334.551 21.99 337.861 19.67C338.901 18.94 340.261 19.32 339.951 18.48C338.211 16.92 335.981 19.12 335.781 19.08C335.241 18.96 331.711 12.01 327.441 13.12C326.861 13.27 319.121 20.45 317.901 20.27C317.471 20.21 313.411 16 311.051 14.91C316.721 19.11 319.451 24.38 320.591 31.3L320.291 255.11C291.711 180.7 215.211 137.22 136.111 154.38C75.6509 167.5 27.0809 219.09 13.9209 278.95L13.6209 30.1C15.3309 23.13 19.0809 18.23 24.9409 14.3C17.5309 16.33 12.6709 26.52 11.8309 33.67C11.5409 36.15 12.2909 49.1 11.8309 49.76C11.5309 50.18 3.06095 51.46 1.70095 51.85C-0.879053 183.91 -0.229053 320.26 1.69095 452.4L11.8209 453.89L14.2009 482.2L13.9009 345.71C24.9209 396.72 62.4709 442.45 111.051 461.94C194.671 495.47 288.901 452.81 320.261 369.55L320.561 479.52C319.301 488.18 314.731 494.53 306.851 498.3C312.161 497.02 314.741 494.35 317.881 489.96C318.481 490.02 325.651 497.61 326.521 498.3C327.271 498.9 327.661 499.89 328.901 500.68C329.371 499.29 335.801 491.94 336.351 491.74C336.601 491.65 338.141 493.63 340.821 492.04C339.621 491.69 339.061 491.76 337.841 491.15L337.861 491.14ZM224.911 171.06C272.381 188.88 309.891 232.8 317.891 283.12L229.081 298.02C223.131 280.11 211.241 266.02 194.211 257.79L224.911 171.07V171.06ZM24.6409 279.54L111.661 298.61L110.771 320.37L22.2609 334.97C17.8309 328.92 21.0809 280.78 24.6409 279.54ZM109.871 450.61C109.751 450.61 109.581 450.58 109.391 450.53C109.241 450.49 109.061 450.44 108.871 450.37C108.781 450.34 108.691 450.31 108.591 450.27C105.071 448.95 96.2709 443.98 90.0209 440.26C89.8809 440.18 89.7409 440.09 89.6009 440.01C89.0509 439.68 88.5209 439.36 88.0209 439.06C85.9809 437.82 84.3909 436.82 83.6509 436.31C76.8009 431.52 70.3709 426.02 64.4109 419.98C50.9109 406.29 39.8809 389.78 32.0809 372.25C31.3509 370.61 30.6509 368.95 29.9709 367.29C29.8209 366.91 29.6609 366.52 29.5109 366.14C28.0409 362.44 26.7109 358.7 25.5409 354.95L113.451 330.22C120.371 346.3 130.461 357.81 145.341 366.88C139.501 375.26 114.421 450.58 109.881 450.62L109.871 450.61ZM177.231 363.59C107.321 370.32 99.8009 265.74 166.501 261.07C233.821 256.36 241.491 357.4 177.231 363.59ZM314.611 356.73L229.081 329.01L231.461 314.11L320.271 324.24L314.611 356.72V356.73Z" fill="#F5F3E7"/>
<path d="M46.6191 93.3753L61.6706 91.7082C61.6706 96.2808 62.9883 99.7896 65.6239 102.235C68.2595 104.648 71.8795 105.855 76.4838 105.855C80.7389 105.855 84.0413 105.093 86.3911 103.568C88.7726 102.012 89.9634 99.6467 89.9634 96.4713C89.8681 95.5187 89.7094 94.7089 89.4871 94.0421C89.2966 93.3753 88.9314 92.7719 88.3916 92.2321C87.8518 91.6923 87.3278 91.2636 86.8197 90.9461C86.3434 90.6285 85.502 90.2951 84.2953 89.9458C83.1204 89.5965 82.0725 89.3266 81.1516 89.1361C80.2625 88.9138 78.8336 88.5963 76.8649 88.1835L72.6733 87.3261C69.5614 86.6275 66.8306 85.8972 64.4808 85.1351C62.131 84.373 59.9082 83.4204 57.8124 82.2772C55.7484 81.1341 54.0496 79.8481 52.7159 78.4191C51.414 76.9902 50.382 75.2755 49.6199 73.275C48.8578 71.2745 48.4768 69.0358 48.4768 66.559C48.4768 63.3201 49.2071 60.4146 50.6678 57.8425C52.1602 55.2387 54.1448 53.127 56.6217 51.5076C59.1302 49.8881 61.9563 48.6656 65.1 47.84C68.2754 46.9826 71.6096 46.554 75.1025 46.554C83.2951 46.554 89.7729 48.3481 94.536 51.9363C99.2991 55.5245 102.062 61.0179 102.824 68.4166L87.9153 70.7505C87.5342 62.0817 83.2315 57.7473 75.0072 57.7473C71.3873 57.7473 68.5453 58.4617 66.4813 59.8906C64.449 61.2878 63.4329 63.2725 63.4329 65.8445C63.4329 68.1626 64.6078 69.9567 66.9576 71.2268C69.3074 72.4652 73.1973 73.6084 78.6272 74.6563C82.1837 75.2914 85.2003 75.9582 87.6771 76.6568C90.1857 77.3554 92.5831 78.2604 94.8694 79.3717C97.1557 80.4831 98.9815 81.7692 100.347 83.2299C101.712 84.6905 102.808 86.5005 103.634 88.6598C104.459 90.7873 104.904 93.2641 104.967 96.0902C104.967 99.1386 104.443 101.885 103.395 104.33C102.379 106.744 100.982 108.744 99.2038 110.332C97.4573 111.92 95.3457 113.237 92.8689 114.285C90.3921 115.333 87.7724 116.079 85.0098 116.524C82.2472 116.969 79.2782 117.191 76.1028 117.191C72.0065 117.191 68.2119 116.699 64.7189 115.714C61.2578 114.73 58.1776 113.285 55.4785 111.38C52.8112 109.443 50.6837 106.934 49.096 103.854C47.54 100.774 46.7144 97.281 46.6191 93.3753Z" fill="#F5F3E7"/>
<path d="M158.638 87.7072L134.918 47.6971H151.731L159.733 62.6533L162.163 67.4164C162.671 68.4642 163.242 69.655 163.877 70.9887C164.512 72.2906 165.005 73.2909 165.354 73.9894C165.703 74.688 165.973 75.2278 166.164 75.6089L169.164 69.5598L172.784 62.558L180.786 47.6971H197.076L173.356 87.7072V116H158.638V87.7072Z" fill="#F5F3E7"/>
<path d="M286.661 103.616V116H238.648V47.6971H253.319V103.616H286.661Z" fill="#F5F3E7"/>
</svg>
