<svg width="213" height="213" viewBox="0 0 213 213" fill="none" xmlns="http://www.w3.org/2000/svg">
<mask id="mask0_2062_42" style="mask-type:alpha" maskUnits="userSpaceOnUse" x="0" y="0" width="213" height="213">
<rect x="0.8875" y="0.8875" width="211.225" height="211.225" rx="105.613" fill="#E9D91F" stroke="black" stroke-width="1.775"/>
</mask>
<g mask="url(#mask0_2062_42)">
<rect width="213" height="213" rx="106.5" fill="#F5F3E7"/>
</g>
<g clip-path="url(#clip0_2062_42)">
<path d="M123.818 72.5827C124.823 74.0062 126.024 74.9259 127.42 75.3457C128.741 75.6816 130.108 75.7176 131.523 75.4557C132.936 75.1918 134.635 74.656 136.62 73.8462C137.939 73.2704 138.783 72.8946 139.149 72.7186C140.744 71.9809 141.923 71.493 142.689 71.2571C143.662 70.9092 144.568 70.8133 145.409 70.9732C146.251 71.1332 146.95 71.607 147.508 72.3987C149.679 75.4717 148.551 78.5706 144.124 81.6995C142.171 83.0811 140.204 83.6629 138.221 83.445C136.24 83.229 134.591 82.1894 133.274 80.326L130.194 83.0111C131.135 84.3446 132.247 85.3603 133.53 86.0621C134.813 86.7638 136.153 87.1277 137.552 87.1557C138.951 87.1837 140.38 86.9517 141.837 86.4639C143.294 85.9761 144.718 85.2403 146.107 84.2587C147.156 83.5169 148.09 82.7392 148.903 81.9255C149.717 81.1137 150.416 80.2201 151 79.2504C151.583 78.2787 151.979 77.301 152.189 76.3154C152.399 75.3297 152.375 74.2781 152.121 73.1625C151.867 72.0468 151.352 70.9412 150.578 69.8456C149.429 68.2202 148.144 67.2405 146.724 66.9066C145.415 66.5627 144.056 66.5867 142.651 66.9806C141.244 67.3744 139.307 68.1722 136.838 69.3758C135.885 69.8476 135.051 70.2295 134.336 70.5234C133.62 70.8173 132.866 71.0752 132.075 71.2951C131.283 71.517 130.596 71.627 130.01 71.625C129.424 71.625 128.861 71.507 128.315 71.2731C127.769 71.0412 127.312 70.6733 126.942 70.1735C126.328 69.3038 126.066 68.3541 126.16 67.3225C126.252 66.2908 126.59 65.3551 127.172 64.5134C127.751 63.6717 128.477 62.942 129.347 62.3282C131.333 60.9227 133.258 60.3169 135.121 60.5068C136.982 60.6987 138.569 61.6844 139.88 63.4678L142.743 60.5808C140.628 58.1436 138.279 56.886 135.695 56.8101C133.108 56.7321 130.404 57.6918 127.582 59.6871C126.474 60.4688 125.521 61.3465 124.719 62.3202C123.918 63.2938 123.294 64.3395 122.848 65.4591C122.403 66.5787 122.253 67.7603 122.397 69.0059C122.541 70.2515 123.014 71.4431 123.82 72.5847L123.818 72.5827Z" fill="#151515"/>
<path d="M136.998 110.711L128.115 105.851L124.188 108.19L142.519 117.621L149.175 128.805L152.591 126.772L145.935 115.586L146.388 94.9727L142.423 97.3339L142.461 107.458L142.545 112.383L142.591 113.914L137.921 111.225L136.998 110.711Z" fill="#151515"/>
<path d="M150.879 143.145L137.333 151.236L123.467 128.008L120.109 130.013L135.74 156.2L152.646 146.104L150.879 143.145Z" fill="#151515"/>
<path d="M123.153 95.0627C124.291 93.2014 124.602 91.0181 124.033 88.9148C123.463 86.8095 122.094 85.0821 120.175 84.0465C116.525 82.0792 111.97 83.2947 109.781 86.8095L105.981 92.2157L112.541 77.3128C113.395 75.3735 113.439 73.2222 112.665 71.2489C111.892 69.2775 110.395 67.7301 108.452 66.8904C106.515 66.0546 104.37 66.0226 102.409 66.8024C100.449 67.5821 98.9115 69.0796 98.0779 71.0169L90.3745 88.9348V64.6571C90.3725 60.3246 86.8485 56.7998 82.5171 56.7998C78.1856 56.7998 74.6617 60.3246 74.6617 64.6571V65.4388C73.3584 64.4752 71.7474 63.9054 70.0044 63.9054H69.9784C65.6489 63.9054 62.125 67.4302 62.125 71.7627V156.184H65.3231V124.507C65.3231 121.932 67.3559 119.782 69.8545 119.714C71.1277 119.678 72.329 120.148 73.2385 121.034C74.148 121.92 74.6497 123.107 74.6497 124.377V127.873C74.6497 132.062 74.6497 136.808 81.3957 140.401L95.1597 147.579L96.6388 144.742L82.8888 137.572C77.8498 134.889 77.8498 131.794 77.8498 127.875V124.379C77.8498 122.237 77.0043 120.236 75.4692 118.743C73.9341 117.249 71.9093 116.461 69.7665 116.519C68.1095 116.565 66.5764 117.149 65.3231 118.099V71.7627C65.3231 69.1936 67.4119 67.1043 69.9804 67.1043H70.0064C72.5749 67.1043 74.6637 69.1936 74.6637 71.7627V107.079H77.8618V64.6571C77.8618 62.088 79.9506 59.9987 82.5191 59.9987C85.0876 59.9987 87.1763 62.088 87.1763 64.6571V107.079H90.3745V97.03L101.016 72.2785C101.512 71.1269 102.425 70.2372 103.591 69.7734C104.756 69.3095 106.031 69.3275 107.183 69.8253C108.338 70.3252 109.227 71.2449 109.689 72.4165C110.151 73.5881 110.123 74.8696 109.615 76.0212L96.5708 105.653L99.3432 107.219L112.426 88.6109L112.48 88.527C113.771 86.4217 116.485 85.6919 118.66 86.8615C119.797 87.4753 120.611 88.499 120.949 89.7485C121.286 90.9961 121.1 92.2917 120.427 93.3953C117.079 98.8774 110.579 106.481 110.515 106.557L110.129 107.007L110.135 156.186H113.333L113.329 108.186C114.81 106.431 120.117 100.043 123.157 95.0647L123.153 95.0627Z" fill="#151515"/>
</g>
<defs>
<clipPath id="clip0_2062_42">
<rect width="90.525" height="99.4" fill="white" transform="translate(62.125 56.7998)"/>
</clipPath>
</defs>
</svg>
